<svg xmlns="http://www.w3.org/2000/svg" width="25.489" height="25.489" viewBox="0 0 25.489 25.489">
  <path id="instagram" d="M12.744,0C9.282,0,8.85.016,7.49.076A9.406,9.406,0,0,0,4.4.669a6.236,6.236,0,0,0-2.258,1.47A6.23,6.23,0,0,0,.669,4.4,9.388,9.388,0,0,0,.076,7.49C.013,8.85,0,9.282,0,12.744S.016,16.638.076,18a9.41,9.41,0,0,0,.593,3.093,6.25,6.25,0,0,0,1.47,2.258A6.232,6.232,0,0,0,4.4,24.82a9.418,9.418,0,0,0,3.093.593c1.36.064,1.792.076,5.254.076s3.894-.016,5.254-.076a9.429,9.429,0,0,0,3.093-.593,6.513,6.513,0,0,0,3.728-3.728A9.41,9.41,0,0,0,25.412,18c.064-1.359.076-1.791.076-5.254s-.016-3.894-.076-5.254A9.421,9.421,0,0,0,24.82,4.4a6.255,6.255,0,0,0-1.47-2.258A6.21,6.21,0,0,0,21.092.669,9.373,9.373,0,0,0,18,.076C16.638.013,16.207,0,12.744,0Zm0,2.294c3.4,0,3.807.017,5.151.075a7.026,7.026,0,0,1,2.365.44,4.195,4.195,0,0,1,2.419,2.418,7.027,7.027,0,0,1,.438,2.365c.061,1.345.074,1.748.074,5.151s-.016,3.807-.079,5.151a7.167,7.167,0,0,1-.447,2.365,4.046,4.046,0,0,1-.955,1.468,3.976,3.976,0,0,1-1.466.952,7.08,7.08,0,0,1-2.374.438c-1.353.061-1.752.074-5.16.074s-3.808-.016-5.16-.079a7.231,7.231,0,0,1-2.375-.447,3.947,3.947,0,0,1-1.465-.955,3.87,3.87,0,0,1-.956-1.466A7.25,7.25,0,0,1,2.31,17.87c-.048-1.338-.064-1.752-.064-5.144s.017-3.808.064-5.162a7.224,7.224,0,0,1,.446-2.373,3.77,3.77,0,0,1,.956-1.466,3.774,3.774,0,0,1,1.465-.954,7.055,7.055,0,0,1,2.359-.447c1.354-.048,1.752-.064,5.16-.064l.048.032Zm0,3.906a6.544,6.544,0,1,0,6.544,6.544A6.544,6.544,0,0,0,12.744,6.2Zm0,10.792a4.248,4.248,0,1,1,4.248-4.248A4.247,4.247,0,0,1,12.744,16.992Zm8.333-11.05a1.531,1.531,0,0,1-3.059,0,1.529,1.529,0,0,1,3.059,0Z"/>
</svg>
