<svg xmlns="http://www.w3.org/2000/svg" width="451.101" height="562.254" viewBox="0 0 451.101 562.254">
  <g id="Group_1176" data-name="Group 1176" transform="translate(0 -0.006)">
    <path id="Path_2943" data-name="Path 2943" d="M-834.526,549.528q.949,7.611,1.9,15.218a21.507,21.507,0,0,1-4.759,2.139,22.182,22.182,0,0,1-5.468.95c-4.83.339-5.8,1.338-13.554,2.854-2.7.529-6.594,1.194-11.415,1.664q-.84-1.661-1.664-3.328a63.354,63.354,0,0,0,5.943-2.379c5.613-2.578,11.4-5.237,15.459-10.939a24.294,24.294,0,0,0,3.654-7.856Z" transform="translate(1110.08 -14.348)" fill="#6b4331"/>
    <path id="Path_2944" data-name="Path 2944" d="M-831.429,491.594q2.672,10.1,5.12,20.574A725.034,725.034,0,0,1-809.7,618.979a511.547,511.547,0,0,1,15.165,74.849,510.265,510.265,0,0,1,3.971,58.034,19.456,19.456,0,0,1-8.082,2.913,19.523,19.523,0,0,1-8.8-.927q-10.406-45.364-23.562-93.283c-15.554-56.307-32.563-109.1-50.256-158.269Q-856.349,496.942-831.429,491.594Z" transform="translate(1068.59 -212.527)" fill="#25394d"/>
    <path id="Path_2945" data-name="Path 2945" d="M-850.368,552.1l-2.483,16.444a34.281,34.281,0,0,1-7.138,1.859,46.092,46.092,0,0,1-7.138.312c-6.368.113-7.345.98-15.517,1.551-1.863.132-4.644.28-8.063.312-.42-1.139-.827-2.28-1.243-3.415a60.463,60.463,0,0,0,11.17-3.1,43.992,43.992,0,0,0,16.753-10.24A37.728,37.728,0,0,0-858.744,549Q-854.558,550.54-850.368,552.1Z" transform="translate(1030.95 -10.317)" fill="#6b4331"/>
    <path id="Path_2946" data-name="Path 2946" d="M-729.731,470.236c-5.219.326-10.664.8-16.313,1.456-6.843.8-13.347,1.786-19.484,2.908q-13.7-.8-28.094-2.424a519.328,519.328,0,0,1-117.362-27.633,15.911,15.911,0,0,0-2.718,5.815,16.863,16.863,0,0,0,.452,9.212A284.4,284.4,0,0,0-875.64,480.9a284.767,284.767,0,0,0,124.611,26.663Q-740.377,488.9-729.731,470.236Z" transform="translate(952.767 -378.266)" fill="#f5678b"/>
    <path id="Path_2947" data-name="Path 2947" d="M-883,473.435a15.16,15.16,0,0,0-2.23-1.356,16.419,16.419,0,0,0-5.282-1.506c-3.044-.489-7.589-1.447-14.871-3.359-9.226-.008-11.176-.525-11.135-1.013.05-.673,3.8-1.587,5.531-1.917a23.474,23.474,0,0,1,6.178-.379,16.727,16.727,0,0,0-5.852-2.316c-3.541-.661-6.476-.008-8.529-2.112a5.366,5.366,0,0,1-1.054-1.551c-1.366.063-2.379-.208-2.438-.746-.1-.768,1.764-1.85,2.2-2.1a13,13,0,0,1,7.643-1.447c4.311.213,7.941.489,10.809.742a17.326,17.326,0,0,0-2.759-2.008c-5.237-3.079-10.479-2.5-10.4-3.533.05-.606,1.9-1.451,3.745-1.782,4.2-.75,6.652,1.484,11.211,3.4a35.833,35.833,0,0,0,8.855,2.388,7.464,7.464,0,0,0-.316-3.247c-.647-1.832-1.68-1.926-2.678-3.754s-1.52-4.587-.56-5.428a2.122,2.122,0,0,1,2.274.113,4.251,4.251,0,0,1,1.539,2.953c.719,2.827,3.039,3.7,4.785,5.215,1.819,1.579,3.919,4.619,4.7,11.081l2.51,1.723a27.013,27.013,0,0,1-1.239,6.2A27.188,27.188,0,0,1-883,473.435Z" transform="translate(922.682 -393.843)" fill="#fcb6a1"/>
    <path id="Path_2948" data-name="Path 2948" d="M-865.832,450.959A45.535,45.535,0,0,1-845,459.113a44.746,44.746,0,0,1,10.343,10.465c7.548,6.693,15.6,13.392,24.205,20.015a459.667,459.667,0,0,0,105.531,60.725,15.888,15.888,0,0,1-1.913,6.128,16.794,16.794,0,0,1-6.549,6.494,284.053,284.053,0,0,1-42.151-9.62,284.8,284.8,0,0,1-109.976-64.363Q-865.674,469.963-865.832,450.959Z" transform="translate(1122.942 -355.668)" fill="#f5678b"/>
    <path id="Path_2949" data-name="Path 2949" d="M-831.893,489.291a15.127,15.127,0,0,1,2.56.5,16.376,16.376,0,0,1,4.917,2.451c2.578,1.691,6.578,4.048,13.242,7.558,6.816,6.214,8.6,7.145,8.9,6.757.42-.525-1.737-3.731-2.791-5.142a23.231,23.231,0,0,0-4.308-4.449,16.559,16.559,0,0,1,5.878,2.239c3.063,1.9,4.79,4.364,7.725,4.2a5.527,5.527,0,0,0,1.826-.434c.963.967,1.891,1.447,2.3,1.094.588-.507-.059-2.556-.208-3.034a12.953,12.953,0,0,0-4.668-6.223c-3.324-2.75-6.192-5-8.48-6.743a17.5,17.5,0,0,1,3.4.375c5.943,1.26,9.421,5.229,10.057,4.41.371-.48-.42-2.351-1.561-3.839-2.595-3.387-5.915-3.391-10.568-5.057a35.573,35.573,0,0,1-8.15-4.21,7.448,7.448,0,0,1,2.424-2.181c1.714-.918,2.537-.294,4.508-.967s4.216-2.361,4.074-3.626c-.087-.778-1.05-1.307-1.755-1.451a4.231,4.231,0,0,0-3.134,1.145c-2.438,1.6-4.739.679-7.051.62-2.41-.069-6.006.768-10.939,5.011l-3.018-.42a27.37,27.37,0,0,0-3.269,5.422A27.366,27.366,0,0,0-831.893,489.291Z" transform="translate(1242.496 -283.394)" fill="#fcb6a1"/>
    <path id="Path_2950" data-name="Path 2950" d="M-834.882,542.708l-17.215-.724a95.87,95.87,0,0,1-17.091-18.055,95.815,95.815,0,0,1-11.993-22.178q-.292-5.169-.575-10.347,19.124.767,38.383,1.624,23.195,1.032,46.172,2.179-.176,5.638-.361,11.271Q-816.219,524.593-834.882,542.708Z" transform="translate(1066.861 -213.205)" fill="#2c445c"/>
    <path id="Path_2951" data-name="Path 2951" d="M-784.281,493.014a71.366,71.366,0,0,1,.474,22.35,71.617,71.617,0,0,1-4.279,16.173c-8.507,22.59-5.582,22.02-16.655,51.838-4.759,12.84-11.026,28.366-19.158,45.728a510.983,510.983,0,0,1-22.044,73.122,511.173,511.173,0,0,1-23.96,53,19.51,19.51,0,0,1-8.5-1.26,19.524,19.524,0,0,1-7.309-4.984c8.227-29.8,16.083-60.924,23.374-93.329,12.41-55.171,21.8-107.868,28.859-157.567Q-808.878,495.553-784.281,493.014Z" transform="translate(1052.939 -207.524)" fill="#2c445c"/>
    <path id="Path_2952" data-name="Path 2952" d="M-787.838,462.34A76.561,76.561,0,0,0-817.556,450.8c-26.625-4.234-47.37,7.286-53.81,11.211q-2.361,29.51-4.36,59.576-4.227,63.484-6.545,124.748c3.74,1.176,7.806,2.288,12.177,3.251,0,0,6.938,1.524,14,2.356,9.447,1.113,34.1-.118,65.922-7.82q-.56-10.115-.967-20.362a1339.788,1339.788,0,0,1,3.3-161.423Z" transform="translate(1065.043 -359.461)" fill="#f5678b"/>
    <path id="Path_2953" data-name="Path 2953" d="M-835.387,453.616a66.26,66.26,0,0,1-15.086,20.907c-5.491,5.079-11.908,11.018-16.91,9.452-6.042-1.9-8.883-14.416-7.1-30.6a49.057,49.057,0,0,1,18.913-3.944A49.211,49.211,0,0,1-835.387,453.616Z" transform="translate(1090.629 -361.035)" fill="#d64d70"/>
    <path id="Path_2954" data-name="Path 2954" d="M-844.66,473.239q1.472-14.633,2.949-29.27l-32.033,4.911a160.715,160.715,0,0,0,.361,26.54c1.094,11.369,1.759,17.547,5.092,18.9C-861.533,497.073-848.118,478.233-844.66,473.239Z" transform="translate(1093.724 -380.292)" fill="#f7a88f"/>
    <path id="Path_2955" data-name="Path 2955" d="M-873.7,440.137a185.881,185.881,0,0,0-3.5,27.954c-.271,5.608-.28,10.917-.09,15.893a31.279,31.279,0,0,0,5.943,11.47,33.278,33.278,0,0,0,14.517,10.112,47.333,47.333,0,0,0,16.87-6.142,45.722,45.722,0,0,0,15.282-15.052,115.565,115.565,0,0,0,2.225-15.051,116.341,116.341,0,0,0-1.271-28.877,46.553,46.553,0,0,0-17.824-6.757A49.384,49.384,0,0,0-873.7,440.137Z" transform="translate(1082.111 -418.348)" fill="#fcb6a1"/>
    <path id="Path_2956" data-name="Path 2956" d="M-823.272,476.3a20.674,20.674,0,0,1-4.907-6.718,22.458,22.458,0,0,1-.362-16.543c-4.776.543-11.663,1.212-20,1.638-24.752,1.26-27.484-1.429-28.356-3.089-1.819-3.464,1.1-8.846,3.639-11.817,11.261-13.175,45.57-14.486,55.8,4.179,7.3,13.319-1.465,29.85-2.542,31.812Q-821.633,476.025-823.272,476.3Z" transform="translate(1081.969 -429.889)" fill="#45282e"/>
    <path id="Path_2957" data-name="Path 2957" d="M-864.818,441.035a7.687,7.687,0,0,1,7.757-.239,7.873,7.873,0,0,1,3.393,7.751c-.6,4.469-5.6,8.407-12.36,8.728Q-865.429,449.163-864.818,441.035Z" transform="translate(1122.245 -394.754)" fill="#fcb6a1"/>
  </g>
</svg>
